<?xml version="1.0" encoding="utf-8"?>
<!-- Generator: Adobe Illustrator 24.1.0, SVG Export Plug-In . SVG Version: 6.00 Build 0)  -->
<svg version="1.1" id="Layer_1" xmlns="http://www.w3.org/2000/svg" xmlns:xlink="http://www.w3.org/1999/xlink" x="0px" y="0px"
	 viewBox="0 0 870 870" style="enable-background:new 0 0 870 870;" xml:space="preserve">
<style type="text/css">
	.st0{fill:#7C6A53;}
</style>
<path class="st0" d="M435,0C195.1,0,0,194.3,0,435c-0.2,121.8,50.9,238.1,140.7,320.4c166.2,152.7,422,153,588.5,0
	c89.9-82.3,141-198.6,140.8-320.4C870,194.7,675.2,0,435,0z M706.8,731v-25.5c0-239.8-543.8-239.8-543.8,0V731
	C80,655,32.9,547.5,33,435C33.1,213,213,33.1,435,33.1s401.9,180,401.9,401.9C837,547.5,789.8,655,706.8,731z M435,147.5
	c-91.4,0-165.5,74.1-165.5,165.5S343.6,478.5,435,478.5S600.5,404.4,600.5,313S526.4,147.6,435,147.5L435,147.5z"/>
</svg>
