<svg data-v-423bf9ae="" xmlns="http://www.w3.org/2000/svg" viewBox="0 0 553 90" class="iconLeftSlogan"><!----><!----><!----><g data-v-423bf9ae="" id="ff8013f6-d934-48c4-a31c-e8da0409b8e7" fill="black" transform="matrix(5.741626375070499,0,0,5.741626375070499,103.62900239610244,-27.387558176410607)"><path d="M10.68 13.13L10.68 5.49C10.63 5.29 10.15 5.11 9.65 5.11C9.42 5.11 9.00 5.12 8.61 5.26C7.90 7.27 6.79 10.22 5.96 12.38C5.03 10.15 4.06 7.77 3.11 5.42C2.91 5.21 2.66 5.11 2.25 5.11C1.61 5.11 1.26 5.19 1.11 5.32C1.19 5.84 1.20 6.36 1.20 7.14L1.20 14.53C1.20 14.94 1.36 15.22 1.76 15.22C2.00 15.22 2.23 15.13 2.37 14.99C2.17 14.45 2.13 13.68 2.13 13.15L2.11 7.11C2.95 9.39 4.00 11.90 4.96 13.83C5.42 14.01 5.88 13.99 6.48 13.78L9.06 7.18L9.09 14.35C9.09 14.88 9.46 15.22 9.97 15.22C10.44 15.22 10.78 14.98 10.93 14.84C10.72 14.29 10.68 13.68 10.68 13.13ZM18.31 13.06C18.00 13.72 17.29 14.17 16.27 14.17C15.08 14.17 14.27 13.57 14.14 11.79C14.63 11.84 15.09 11.86 15.55 11.86C17.40 11.86 18.62 11.12 18.62 9.73C18.62 8.34 17.42 7.64 15.85 7.64C13.58 7.64 12.36 9.09 12.36 11.42C12.36 13.86 13.71 15.22 15.82 15.22C17.09 15.22 18.07 14.73 18.42 13.83C18.63 13.34 18.49 13.15 18.31 13.06ZM15.79 8.23C16.32 8.23 16.86 8.48 16.86 9.46C16.86 11.03 15.67 11.24 14.67 11.23C14.48 11.23 14.28 11.21 14.11 11.20C14.11 9.32 14.74 8.23 15.79 8.23ZM26.84 13.73C26.74 13.89 26.57 13.92 26.46 13.92C26.17 13.92 26.00 13.69 26.00 13.19L26.01 5.64C26.01 5.08 25.59 4.77 25.07 4.77C24.60 4.77 24.28 5.01 24.12 5.14C24.36 5.94 24.40 6.86 24.40 7.53L24.40 8.57C24.14 7.98 23.52 7.64 22.62 7.64C20.72 7.64 19.66 9.13 19.66 11.70C19.66 13.59 20.27 15.22 22.11 15.22C23.28 15.22 24.08 14.55 24.50 13.31C24.58 14.45 25.02 15.15 25.89 15.15C26.52 15.15 27.01 14.78 27.01 14.28C27.01 14.13 26.95 13.92 26.84 13.73ZM22.60 14.29C21.63 14.29 21.41 13.26 21.41 11.68C21.41 9.63 21.88 8.48 23.00 8.48C24.16 8.48 24.37 9.53 24.37 10.58C24.37 12.49 23.80 14.29 22.60 14.29ZM34.89 15.22C36.57 15.22 38.29 14.50 38.29 13.30C38.29 12.64 37.56 12.38 36.90 12.46C36.69 13.90 35.97 14.60 34.97 14.60C33.53 14.60 32.84 13.12 32.84 10.15C32.84 7.18 33.54 5.70 35.03 5.70C35.98 5.70 36.57 6.31 36.71 7.62C37.58 7.64 38.04 7.15 38.04 6.68C38.04 5.68 36.51 5.08 35 5.08C32.49 5.08 31.01 6.90 31.01 10.15C31.01 13.40 32.45 15.22 34.89 15.22ZM46.38 13.72C46.28 13.87 46.09 13.93 45.98 13.93C45.65 13.93 45.50 13.69 45.50 13.19L45.50 10.67C45.50 8.53 44.58 7.64 42.55 7.64C40.78 7.64 39.65 8.23 39.65 9.35C39.65 10.05 40.14 10.63 40.95 10.63C41.29 10.63 41.65 10.53 41.85 10.32C41.44 10.11 41.31 9.67 41.31 9.30C41.31 8.50 41.85 8.22 42.43 8.22C43.47 8.22 43.82 9.02 43.82 10.57L43.82 10.92C43.23 10.92 42.49 10.98 41.73 11.19C40.50 11.54 39.33 12.25 39.33 13.52C39.33 14.57 40.07 15.16 41.13 15.16C42.42 15.16 43.40 14.36 43.92 13.22C43.97 14.64 44.48 15.16 45.35 15.16C46.07 15.16 46.55 14.76 46.55 14.25C46.55 14.10 46.51 13.89 46.38 13.72ZM41.97 14.08C41.36 14.14 41.12 13.65 41.12 13.13C41.12 12.52 41.51 12.04 42.08 11.77C42.57 11.54 43.29 11.47 43.86 11.48C43.86 12.89 42.81 14.03 41.97 14.08ZM50.50 15.22C52.86 15.22 53.83 13.58 53.83 11.14C53.83 8.64 52.85 7.64 51.37 7.64C50.26 7.64 49.48 8.26 49.17 9.17L49.17 7.83C49.17 7.22 49.21 6.05 49.43 5.14C49.27 5.01 48.90 4.77 48.41 4.77C47.92 4.77 47.54 5.08 47.54 5.64L47.54 14.28C48.20 14.90 49.36 15.22 50.50 15.22ZM50.40 14.53C49.92 14.53 49.43 14.36 49.17 14.14L49.17 11.62C49.17 10.07 49.71 8.51 50.99 8.51C51.74 8.51 52.08 9.31 52.08 11.14C52.08 12.88 51.84 14.50 50.40 14.53ZM56.22 6.85C56.76 6.85 57.19 6.41 57.19 5.88C57.19 5.33 56.76 4.90 56.22 4.90C55.68 4.90 55.24 5.33 55.24 5.88C55.24 6.41 55.68 6.85 56.22 6.85ZM57.11 13.13L57.08 8.48C57.08 7.94 56.70 7.63 56.15 7.63C55.71 7.63 55.38 7.87 55.23 7.99C55.44 8.54 55.48 9.17 55.48 9.70L55.48 14.35C55.48 14.88 55.89 15.22 56.41 15.22C56.87 15.22 57.19 14.98 57.34 14.84C57.13 14.29 57.11 13.68 57.11 13.13ZM65.35 13.13L65.35 10.49C65.35 8.60 64.64 7.64 63.10 7.64C61.92 7.64 61.12 8.25 60.75 9.32C60.75 8.19 60.24 7.64 59.43 7.64C58.77 7.64 58.39 8.01 58.39 8.51C58.39 8.71 58.45 8.88 58.56 9.06C58.66 8.90 58.83 8.88 58.94 8.88C59.18 8.88 59.29 9.07 59.30 9.60L59.30 14.27C59.30 14.85 59.71 15.22 60.27 15.22C60.72 15.22 61.05 14.99 61.21 14.85C60.93 14.18 60.93 13.68 60.93 11.70C60.93 9.48 61.68 8.48 62.57 8.48C63.48 8.48 63.71 9.30 63.73 10.72L63.73 14.35C63.73 14.88 64.13 15.22 64.67 15.22C65.07 15.22 65.38 15.05 65.62 14.84C65.39 14.29 65.37 13.58 65.35 13.13ZM72.77 13.06C72.46 13.72 71.75 14.17 70.73 14.17C69.54 14.17 68.73 13.57 68.60 11.79C69.09 11.84 69.55 11.86 70.01 11.86C71.86 11.86 73.08 11.12 73.08 9.73C73.08 8.34 71.88 7.64 70.31 7.64C68.04 7.64 66.82 9.09 66.82 11.42C66.82 13.86 68.17 15.22 70.28 15.22C71.55 15.22 72.53 14.73 72.88 13.83C73.09 13.34 72.95 13.15 72.77 13.06ZM70.25 8.23C70.78 8.23 71.32 8.48 71.32 9.46C71.32 11.03 70.13 11.24 69.13 11.23C68.94 11.23 68.74 11.21 68.57 11.20C68.57 9.32 69.20 8.23 70.25 8.23ZM76.59 7.84L76.41 7.84C76.44 7.27 76.51 6.80 76.64 6.33C76.50 6.20 76.19 5.96 75.71 5.96C75.17 5.96 74.76 6.29 74.76 6.82L74.76 7.84L74.17 7.84C73.93 7.84 73.74 7.97 73.72 8.25L73.71 8.65C73.89 8.62 74.37 8.60 74.55 8.60L74.76 8.60L74.76 13.33C74.76 14.46 75.35 15.16 76.40 15.16C77.25 15.16 77.81 14.80 77.81 14.27C77.81 14.11 77.76 13.90 77.63 13.72C77.55 13.87 77.25 13.94 77.04 13.94C76.61 13.94 76.40 13.68 76.40 13.19L76.40 9.06L76.40 8.60L77.69 8.60C77.91 8.60 78.09 8.46 78.11 8.19L78.12 7.78C77.98 7.81 76.73 7.84 76.59 7.84Z"></path></g><!----><g data-v-423bf9ae="" id="1ae6e8d2-0331-4484-9306-6cae8f818861" transform="matrix(1.1012271891600935,0,0,1.1012271891600935,-9.925911996921378,-9.924811567729925)" stroke="none" fill="black"><path d="M50.001 9.136c-22.533 0-40.865 18.331-40.865 40.862 0 22.533 18.332 40.865 40.865 40.865 22.532 0 40.864-18.332 40.864-40.865 0-22.531-18.332-40.862-40.864-40.862zm20.745 55.94a36.98 36.98 0 0 1-5.287 1.775c-1.832.467-3.695.809-5.484.977a34.14 34.14 0 0 1-3.35.156 24.403 24.403 0 0 1 3.688 1.758 25.974 25.974 0 0 1 3.207 2.199 21.969 21.969 0 0 1 2.537 2.377 16.871 16.871 0 0 1 1.586 2.025c.357.545.535.9.535.9s-.396.02-1.043-.016a17.094 17.094 0 0 1-2.553-.367 21.373 21.373 0 0 1-3.322-1.018 25.995 25.995 0 0 1-3.5-1.686c-2.297-1.311-4.357-3.018-5.75-4.566a17.094 17.094 0 0 1-1.584-2.035c-.102-.16-.189-.295-.256-.416-.068-.018-.127-.037-.168-.047-.043.01-.1.029-.166.047-.07.121-.154.256-.256.416a17.348 17.348 0 0 1-1.59 2.035c-1.389 1.549-3.457 3.254-5.748 4.566a25.906 25.906 0 0 1-3.502 1.686 21.126 21.126 0 0 1-3.32 1.018 16.91 16.91 0 0 1-2.553.367c-.646.035-1.039.016-1.039.016s.176-.355.529-.9c.354-.537.891-1.258 1.588-2.025a22.443 22.443 0 0 1 2.535-2.377 26.304 26.304 0 0 1 3.209-2.199 24.177 24.177 0 0 1 3.688-1.758 34.168 34.168 0 0 1-3.35-.156c-1.785-.168-3.652-.51-5.486-.977a37.163 37.163 0 0 1-5.285-1.775c-1.648-.707-3.158-1.49-4.42-2.281a24.638 24.638 0 0 1-2.984-2.178c-.354-.291-.617-.57-.803-.74a4.89 4.89 0 0 1-.279-.285s.135-.047.383-.117c.242-.059.609-.176 1.059-.271a25.584 25.584 0 0 1 3.662-.484 32.936 32.936 0 0 1 4.975.107c1.787.174 3.652.51 5.488.969a36.917 36.917 0 0 1 5.287 1.764c.506.215.992.443 1.467.67a37.365 37.365 0 0 1-.902-.785 54.04 54.04 0 0 1-2.482-2.373 59.198 59.198 0 0 1-4.811-5.611c-1.512-2.008-2.91-4.097-4.092-6.158-1.176-2.062-2.162-4.073-2.898-5.877a37.229 37.229 0 0 1-1.545-4.543c-.156-.569-.236-1.05-.312-1.362-.068-.317-.09-.495-.09-.495s.166.07.455.221c.279.155.719.365 1.227.669a37.314 37.314 0 0 1 3.949 2.718c1.537 1.198 3.207 2.691 4.875 4.383 1.662 1.692 3.295 3.608 4.816 5.607 1.516 1.999 2.92 4.09 4.1 6.151.498.852.945 1.709 1.367 2.543a62.46 62.46 0 0 1-.953-5.584c-.352-2.835-.523-5.863-.523-8.887.006-3.025.182-6.054.539-8.89.35-2.836.875-5.484 1.461-7.755a44.397 44.397 0 0 1 1.787-5.484c.531-1.323.945-2.08.945-2.08s.414.757.944 2.08c.541 1.323 1.201 3.215 1.789 5.484a60.876 60.876 0 0 1 1.459 7.755c.359 2.836.533 5.865.543 8.89 0 3.024-.174 6.052-.527 8.887a61.863 61.863 0 0 1-.949 5.582c.422-.832.869-1.689 1.361-2.541a59.641 59.641 0 0 1 4.1-6.151c1.527-1.999 3.158-3.915 4.82-5.607 1.666-1.692 3.332-3.185 4.869-4.383a36.934 36.934 0 0 1 3.957-2.718c.504-.304.943-.514 1.227-.669.285-.151.451-.221.451-.221s-.023.178-.086.495c-.078.312-.16.793-.32 1.362-.297 1.151-.801 2.739-1.539 4.543-.74 1.804-1.723 3.814-2.902 5.877-1.176 2.061-2.58 4.15-4.088 6.158-1.52 2.002-3.146 3.914-4.814 5.611a52.043 52.043 0 0 1-2.48 2.373c-.303.277-.602.531-.9.785.473-.227.961-.455 1.469-.67a36.616 36.616 0 0 1 5.283-1.764 38.108 38.108 0 0 1 5.486-.969 32.855 32.855 0 0 1 4.979-.107 25.77 25.77 0 0 1 3.662.484c.449.096.812.213 1.057.271.246.07.383.117.383.117s-.094.109-.281.285c-.184.17-.449.449-.801.74a24.672 24.672 0 0 1-2.982 2.178 33.419 33.419 0 0 1-4.428 2.281z"></path></g><!----><g data-v-423bf9ae="" id="76e42882-81a9-4959-a30a-573baf71075d" fill="black" transform="matrix(0.6709473525475125,0,0,0.6709473525475125,109.53253802380206,57.564461745431935)"><path d="M12.57 4.44C12.75 4.42 12.85 4.34 12.85 4.19L12.85 3.92L11.68 3.92L11.17 3.92C11.10 3.92 11.06 3.92 11.02 3.93C10.98 3.95 10.95 3.99 10.91 4.05L7.01 10.92C6.97 10.99 6.94 11.06 6.92 11.13C6.89 11.20 6.86 11.28 6.83 11.35C6.78 11.20 6.72 11.06 6.65 10.93L2.65 4.05C2.60 3.99 2.58 3.95 2.53 3.93C2.49 3.92 2.45 3.92 2.38 3.92L1.89 3.92L0.70 3.92L0.70 4.19C0.70 4.34 0.80 4.42 0.98 4.44L1.12 4.44C1.19 4.44 1.29 4.45 1.43 4.45C1.57 4.45 1.72 4.47 1.89 4.47L1.89 13.26C1.72 13.26 1.57 13.27 1.43 13.27C1.29 13.27 1.19 13.29 1.12 13.29L0.98 13.29C0.80 13.30 0.70 13.38 0.70 13.54L0.70 13.82L1.89 13.82L2.51 13.82L3.72 13.82L3.72 13.54C3.72 13.38 3.63 13.30 3.44 13.29L3.30 13.29C3.23 13.29 3.12 13.27 2.98 13.27C2.84 13.27 2.67 13.26 2.51 13.26L2.51 5.38C2.51 5.25 2.51 5.12 2.49 4.98L6.50 11.91C6.57 12.04 6.66 12.10 6.78 12.10L6.89 12.10C7.01 12.10 7.10 12.04 7.17 11.91L11.06 4.98C11.05 5.12 11.05 5.25 11.05 5.38L11.05 13.26C10.88 13.26 10.71 13.27 10.57 13.27C10.43 13.27 10.32 13.29 10.25 13.29L10.11 13.29C9.93 13.30 9.83 13.38 9.83 13.54L9.83 13.82L11.05 13.82L11.68 13.82L12.85 13.82L12.85 13.54C12.85 13.38 12.75 13.30 12.57 13.29L12.45 13.29C12.38 13.29 12.26 13.27 12.12 13.27C11.98 13.27 11.84 13.26 11.68 13.26L11.68 4.47C11.84 4.47 11.98 4.45 12.12 4.45C12.26 4.45 12.38 4.44 12.45 4.44ZM26.80 13.29L26.70 13.29L26.47 13.29C26.38 13.29 26.26 13.27 26.15 13.27L26.15 9.28C26.15 8.89 26.11 8.55 26.01 8.23C25.91 7.91 25.77 7.64 25.59 7.42C25.41 7.20 25.17 7.03 24.89 6.92C24.61 6.79 24.29 6.73 23.91 6.73C23.41 6.73 22.96 6.83 22.55 7.01C22.15 7.20 21.77 7.48 21.41 7.84L21.52 8.05C21.56 8.13 21.63 8.18 21.73 8.18C21.80 8.18 21.90 8.12 21.99 8.02C22.09 7.92 22.23 7.84 22.40 7.73C22.57 7.62 22.75 7.52 22.99 7.42C23.23 7.32 23.51 7.28 23.84 7.28C24.39 7.28 24.81 7.45 25.09 7.80C25.37 8.15 25.49 8.64 25.49 9.28L25.49 10.01C24.71 10.02 24.04 10.09 23.48 10.21C22.92 10.32 22.46 10.47 22.09 10.65C21.73 10.84 21.48 11.06 21.31 11.31C21.14 11.56 21.06 11.83 21.06 12.12C21.06 12.45 21.11 12.73 21.21 12.95C21.32 13.17 21.46 13.36 21.63 13.50C21.80 13.64 22.01 13.75 22.23 13.82C22.46 13.89 22.68 13.93 22.92 13.93C23.20 13.93 23.46 13.90 23.70 13.85C23.94 13.79 24.15 13.71 24.36 13.61C24.57 13.51 24.77 13.38 24.96 13.23C25.14 13.08 25.33 12.91 25.52 12.73L25.62 13.62C25.65 13.75 25.75 13.82 25.89 13.82L25.90 13.82L26.15 13.82L27.08 13.82L27.08 13.54C27.08 13.38 26.98 13.30 26.80 13.29ZM25.49 12.26C25.33 12.43 25.17 12.60 25.00 12.74C24.84 12.88 24.65 13.01 24.46 13.12C24.26 13.23 24.05 13.30 23.83 13.36C23.60 13.41 23.35 13.44 23.09 13.44C22.90 13.44 22.72 13.43 22.55 13.37C22.39 13.31 22.25 13.24 22.12 13.13C21.99 13.02 21.88 12.88 21.81 12.71C21.73 12.54 21.70 12.35 21.70 12.11C21.70 11.86 21.77 11.63 21.92 11.44C22.08 11.24 22.30 11.09 22.61 10.95C22.92 10.81 23.31 10.70 23.79 10.61C24.26 10.53 24.84 10.47 25.49 10.46ZM37.42 13.93C37.72 13.93 38.00 13.86 38.28 13.75C38.54 13.64 38.77 13.48 38.95 13.29L38.77 12.98C38.72 12.94 38.70 12.92 38.65 12.92C38.63 12.92 38.57 12.94 38.51 12.99C38.46 13.05 38.39 13.09 38.30 13.15C38.22 13.20 38.11 13.26 37.98 13.31C37.86 13.37 37.73 13.38 37.56 13.38C37.42 13.38 37.28 13.36 37.17 13.31C37.06 13.27 36.96 13.20 36.88 13.12C36.79 13.03 36.72 12.92 36.67 12.78C36.61 12.64 36.60 12.49 36.60 12.29L36.60 7.57L38.79 7.57L38.79 7.07L36.60 7.07L36.60 4.41L36.27 4.41C36.22 4.41 36.19 4.44 36.16 4.47C36.13 4.49 36.11 4.54 36.11 4.58L35.94 7.07L34.75 7.15L34.75 7.41C34.75 7.46 34.76 7.49 34.79 7.52C34.82 7.55 34.87 7.57 34.93 7.57L35.92 7.57L35.92 12.33C35.92 12.88 36.05 13.27 36.32 13.54C36.58 13.80 36.95 13.93 37.42 13.93ZM52.21 12.70C52.18 12.66 52.12 12.63 52.07 12.63C52.01 12.63 51.95 12.66 51.87 12.74C51.79 12.82 51.66 12.91 51.52 13.01C51.38 13.10 51.18 13.17 50.96 13.26C50.74 13.34 50.44 13.38 50.11 13.38C49.74 13.38 49.41 13.31 49.11 13.17C48.82 13.03 48.57 12.85 48.36 12.59C48.15 12.33 47.98 12.01 47.87 11.63C47.75 11.26 47.70 10.82 47.70 10.33C47.70 9.86 47.75 9.44 47.87 9.06C47.98 8.68 48.15 8.36 48.36 8.09C48.57 7.83 48.83 7.62 49.14 7.48C49.45 7.34 49.80 7.27 50.20 7.27C50.55 7.27 50.95 7.35 51.39 7.50C51.41 7.69 51.41 7.87 51.42 8.04C51.44 8.20 51.45 8.33 51.46 8.43C51.48 8.53 51.48 8.58 51.48 8.60C51.49 8.82 51.59 8.93 51.79 8.93L52.12 8.93L52.12 7.18L51.76 7.07C51.52 7.00 51.23 6.92 50.90 6.85C50.58 6.78 50.33 6.75 50.16 6.75C49.66 6.75 49.22 6.82 48.83 7.00C48.44 7.18 48.10 7.42 47.84 7.74C47.57 8.06 47.38 8.44 47.24 8.88C47.10 9.31 47.01 9.80 47.01 10.33C47.01 10.89 47.08 11.40 47.24 11.84C47.38 12.29 47.59 12.66 47.85 12.96C48.12 13.27 48.44 13.51 48.80 13.66C49.17 13.83 49.56 13.92 50.01 13.92C50.27 13.92 50.53 13.89 50.76 13.83C51.00 13.78 51.23 13.72 51.44 13.64C51.65 13.55 51.81 13.44 51.98 13.31C52.15 13.19 52.28 13.06 52.39 12.92ZM67.82 13.29L67.73 13.29L67.63 13.29C67.59 13.29 67.52 13.27 67.42 13.27C67.33 13.27 67.20 13.26 67.07 13.26L67.07 9.37C67.07 8.96 67.03 8.60 66.93 8.27C66.84 7.95 66.70 7.67 66.50 7.45C66.30 7.22 66.07 7.06 65.77 6.93C65.48 6.80 65.14 6.75 64.76 6.75C64.25 6.75 63.78 6.86 63.36 7.10C62.96 7.34 62.59 7.66 62.27 8.05L62.27 3.64L61.60 3.64L60.59 3.64L60.59 3.91C60.59 4.06 60.69 4.14 60.87 4.16L60.94 4.16C60.97 4.16 61.01 4.17 61.05 4.17L61.26 4.17C61.36 4.17 61.47 4.19 61.60 4.19L61.60 13.26C61.45 13.26 61.31 13.29 61.19 13.29L60.96 13.29L60.87 13.29C60.69 13.30 60.59 13.38 60.59 13.54L60.59 13.82L61.60 13.82L62.27 13.82L63.28 13.82L63.28 13.54C63.28 13.38 63.18 13.30 63.00 13.29L62.93 13.29L62.82 13.29C62.78 13.29 62.71 13.27 62.61 13.27C62.51 13.27 62.40 13.26 62.27 13.26L62.27 8.60C62.58 8.19 62.93 7.87 63.32 7.63C63.71 7.39 64.13 7.28 64.60 7.28C65.21 7.28 65.67 7.46 65.97 7.83C66.26 8.20 66.42 8.71 66.42 9.37L66.42 13.82L67.07 13.82L68.08 13.82L68.08 13.54C68.08 13.38 68.00 13.30 67.82 13.29ZM77.25 4.89C77.31 4.94 77.38 4.98 77.45 5.01C77.52 5.04 77.60 5.07 77.69 5.07C77.77 5.07 77.85 5.04 77.92 5.01C77.99 4.98 78.06 4.94 78.12 4.89C78.18 4.83 78.23 4.76 78.26 4.69C78.29 4.62 78.32 4.54 78.32 4.45C78.32 4.37 78.29 4.30 78.26 4.21C78.23 4.14 78.18 4.07 78.12 4.02C78.06 3.96 77.99 3.91 77.92 3.88C77.85 3.85 77.77 3.84 77.69 3.84C77.60 3.84 77.52 3.85 77.45 3.88C77.38 3.91 77.31 3.96 77.25 4.02C77.20 4.07 77.15 4.14 77.13 4.21C77.10 4.28 77.07 4.37 77.07 4.45C77.07 4.54 77.10 4.62 77.13 4.69C77.15 4.76 77.20 4.83 77.25 4.89ZM78.75 13.29L78.68 13.29L78.57 13.29C78.53 13.29 78.46 13.27 78.36 13.27C78.26 13.27 78.15 13.26 78.02 13.26L78.02 6.85L77.35 6.85L76.34 6.85L76.34 7.13C76.34 7.28 76.44 7.36 76.62 7.38L76.69 7.38C76.72 7.38 76.76 7.39 76.80 7.39L77.01 7.39C77.11 7.39 77.22 7.41 77.35 7.41L77.35 13.26C77.20 13.26 77.06 13.29 76.94 13.29L76.71 13.29L76.62 13.29C76.44 13.30 76.34 13.38 76.34 13.54L76.34 13.82L77.35 13.82L78.02 13.82L79.03 13.82L79.03 13.54C79.03 13.38 78.93 13.30 78.75 13.29ZM94.53 13.29L94.46 13.29L94.35 13.29C94.30 13.29 94.23 13.27 94.14 13.27C94.04 13.27 93.93 13.26 93.80 13.26L93.80 9.37C93.80 8.96 93.74 8.60 93.65 8.27C93.55 7.95 93.41 7.67 93.21 7.45C93.02 7.22 92.78 7.06 92.48 6.93C92.19 6.80 91.85 6.75 91.48 6.75C90.96 6.75 90.48 6.87 90.06 7.11C89.64 7.36 89.28 7.67 88.96 8.08L88.90 7.03C88.89 6.92 88.82 6.86 88.69 6.86L88.33 6.86L87.32 6.86L87.32 7.13C87.32 7.28 87.40 7.36 87.58 7.38L87.67 7.38C87.70 7.38 87.72 7.39 87.77 7.39L87.98 7.39C88.07 7.39 88.20 7.41 88.33 7.41L88.33 13.26C88.16 13.26 88.02 13.29 87.91 13.29L87.68 13.29L87.58 13.29C87.40 13.30 87.32 13.38 87.32 13.54L87.32 13.82L88.33 13.82L88.98 13.82L89.99 13.82L89.99 13.54C89.99 13.38 89.91 13.30 89.73 13.29L89.64 13.29L89.54 13.29C89.50 13.29 89.43 13.27 89.33 13.27C89.24 13.27 89.11 13.26 88.98 13.26L88.98 8.60C89.29 8.19 89.64 7.87 90.03 7.63C90.43 7.39 90.85 7.28 91.31 7.28C91.92 7.28 92.39 7.46 92.68 7.83C92.97 8.20 93.13 8.71 93.13 9.37L93.13 13.82L93.80 13.82L94.81 13.82L94.81 13.54C94.81 13.38 94.71 13.30 94.53 13.29ZM105.73 6.73C105.35 6.73 105.01 6.79 104.71 6.90C104.40 7.01 104.15 7.15 103.92 7.35C103.70 7.55 103.53 7.77 103.42 8.05C103.31 8.33 103.24 8.64 103.24 8.97C103.24 9.39 103.33 9.76 103.52 10.08C103.70 10.40 103.95 10.65 104.29 10.85C104.15 10.92 104.03 11.00 103.92 11.10C103.81 11.20 103.73 11.28 103.66 11.40C103.59 11.51 103.53 11.61 103.49 11.72C103.45 11.83 103.43 11.93 103.43 12.03C103.43 12.29 103.49 12.49 103.63 12.64C103.77 12.80 103.95 12.89 104.19 12.98C103.77 13.12 103.42 13.33 103.18 13.59C102.94 13.86 102.82 14.18 102.82 14.55C102.82 14.80 102.89 15.05 103.01 15.27C103.14 15.50 103.32 15.69 103.57 15.86C103.82 16.03 104.13 16.17 104.50 16.27C104.86 16.37 105.29 16.42 105.78 16.42C106.26 16.42 106.71 16.35 107.10 16.23C107.49 16.10 107.80 15.95 108.08 15.74C108.36 15.53 108.57 15.29 108.71 15.02C108.85 14.76 108.92 14.49 108.92 14.20C108.92 13.89 108.86 13.64 108.72 13.44C108.58 13.24 108.39 13.12 108.16 13.01C107.94 12.89 107.66 12.82 107.37 12.78C107.07 12.74 106.78 12.71 106.47 12.70C106.16 12.68 105.85 12.66 105.56 12.64C105.27 12.63 105 12.61 104.78 12.56C104.55 12.50 104.36 12.43 104.22 12.32C104.08 12.21 104.01 12.05 104.01 11.86C104.01 11.72 104.06 11.56 104.17 11.41C104.29 11.26 104.44 11.13 104.64 11.02C104.96 11.14 105.32 11.19 105.73 11.19C106.09 11.19 106.43 11.14 106.74 11.03C107.04 10.92 107.30 10.78 107.52 10.58C107.74 10.39 107.90 10.16 108.02 9.88C108.15 9.60 108.21 9.31 108.21 8.97C108.21 8.72 108.18 8.48 108.11 8.26C108.04 8.04 107.93 7.84 107.80 7.66L108.86 7.57C108.99 7.56 109.06 7.50 109.06 7.39L109.06 7.15L107.27 7.15C107.06 7.01 106.82 6.92 106.57 6.85C106.32 6.78 106.04 6.73 105.73 6.73ZM108.32 14.29C108.32 14.53 108.25 14.74 108.12 14.94C108.00 15.13 107.81 15.33 107.59 15.47C107.37 15.61 107.10 15.72 106.79 15.81C106.48 15.89 106.15 15.92 105.80 15.92C105.42 15.92 105.08 15.88 104.79 15.81C104.50 15.74 104.23 15.62 104.03 15.50C103.84 15.37 103.68 15.22 103.57 15.05C103.46 14.88 103.42 14.69 103.42 14.48C103.42 14.31 103.46 14.17 103.52 14.03C103.57 13.89 103.66 13.76 103.77 13.65C103.88 13.54 103.99 13.43 104.15 13.34C104.30 13.26 104.47 13.17 104.65 13.10C104.89 13.15 105.14 13.17 105.42 13.19C105.70 13.20 105.95 13.22 106.23 13.23C106.51 13.24 106.76 13.26 107.02 13.29C107.27 13.31 107.49 13.38 107.69 13.45C107.88 13.52 108.02 13.62 108.14 13.76C108.25 13.90 108.32 14.07 108.32 14.29ZM105.73 10.74C105.43 10.74 105.18 10.70 104.94 10.61C104.71 10.53 104.51 10.40 104.34 10.25C104.17 10.09 104.06 9.91 103.98 9.70C103.89 9.49 103.85 9.25 103.85 8.99C103.85 8.72 103.89 8.48 103.98 8.26C104.06 8.04 104.17 7.87 104.34 7.71C104.51 7.56 104.71 7.43 104.94 7.35C105.18 7.27 105.43 7.22 105.73 7.22C106.02 7.22 106.29 7.27 106.51 7.35C106.74 7.43 106.93 7.56 107.10 7.71C107.27 7.87 107.39 8.04 107.48 8.26C107.56 8.48 107.60 8.71 107.60 8.97C107.60 9.24 107.56 9.49 107.48 9.70C107.39 9.91 107.27 10.09 107.11 10.25C106.96 10.40 106.76 10.53 106.53 10.61C106.29 10.70 106.02 10.74 105.73 10.74ZM134.20 6.86L133.69 6.86L132.29 6.86L132.29 7.13C132.29 7.28 132.38 7.36 132.57 7.38L132.64 7.38C132.66 7.38 132.69 7.39 132.73 7.39L132.94 7.39C133.04 7.39 133.15 7.41 133.28 7.41L131.14 12.45L131.05 12.66C131.03 12.73 131.01 12.80 130.98 12.87C130.97 12.80 130.93 12.73 130.91 12.66C130.89 12.59 130.87 12.52 130.84 12.45L128.67 7.41C128.83 7.41 128.97 7.39 129.08 7.39C129.19 7.39 129.28 7.38 129.30 7.38L129.39 7.38C129.57 7.36 129.67 7.28 129.67 7.13L129.67 6.86L128.25 6.86L128.25 6.86L127.69 6.86L127.23 6.86L127.23 7.13C127.23 7.28 127.33 7.36 127.51 7.38C127.51 7.38 127.65 7.38 127.93 7.39L130.65 13.57L129.42 16.28L129.89 16.28C129.98 16.28 130.05 16.25 130.09 16.21C130.13 16.17 130.17 16.13 130.20 16.06L133.97 7.39L134.22 7.39C134.30 7.39 134.34 7.38 134.37 7.38L134.44 7.38C134.62 7.36 134.72 7.28 134.72 7.13L134.72 6.86ZM145.60 6.73C145.10 6.73 144.65 6.83 144.26 7.00C143.86 7.17 143.53 7.41 143.25 7.71C142.97 8.02 142.77 8.40 142.63 8.85C142.49 9.30 142.41 9.79 142.41 10.33C142.41 10.88 142.49 11.37 142.63 11.80C142.77 12.24 142.97 12.63 143.25 12.94C143.53 13.24 143.86 13.48 144.26 13.65C144.65 13.82 145.10 13.90 145.60 13.90C146.10 13.90 146.54 13.82 146.93 13.65C147.32 13.48 147.66 13.24 147.92 12.94C148.19 12.63 148.41 12.24 148.55 11.80C148.69 11.37 148.76 10.88 148.76 10.33C148.76 9.79 148.69 9.30 148.55 8.85C148.41 8.40 148.19 8.02 147.92 7.71C147.66 7.41 147.32 7.17 146.93 7.00C146.54 6.83 146.10 6.73 145.60 6.73ZM145.60 13.38C145.18 13.38 144.82 13.31 144.51 13.17C144.20 13.03 143.93 12.82 143.72 12.56C143.51 12.29 143.37 11.97 143.26 11.59C143.15 11.21 143.11 10.79 143.11 10.33C143.11 9.87 143.15 9.45 143.26 9.07C143.37 8.69 143.51 8.37 143.72 8.11C143.93 7.84 144.20 7.62 144.51 7.48C144.82 7.34 145.18 7.27 145.60 7.27C146.02 7.27 146.37 7.34 146.68 7.48C146.99 7.62 147.25 7.84 147.46 8.11C147.67 8.37 147.83 8.69 147.92 9.07C148.02 9.45 148.08 9.87 148.08 10.33C148.08 10.79 148.02 11.21 147.92 11.59C147.83 11.97 147.67 12.29 147.46 12.56C147.25 12.82 146.99 13.03 146.68 13.17C146.37 13.31 146.02 13.38 145.60 13.38ZM163.80 13.29L163.73 13.29L163.62 13.29C163.58 13.29 163.51 13.27 163.41 13.27C163.31 13.27 163.20 13.26 163.07 13.26L163.07 6.85L162.40 6.86L161.39 6.86L161.39 7.13C161.39 7.28 161.49 7.36 161.67 7.38L161.74 7.38C161.77 7.38 161.81 7.39 161.85 7.39L162.06 7.39C162.16 7.39 162.27 7.41 162.40 7.41L162.40 12.08C162.09 12.49 161.73 12.81 161.34 13.05C160.94 13.27 160.52 13.40 160.08 13.40C159.46 13.40 159.00 13.20 158.70 12.84C158.41 12.46 158.26 11.96 158.26 11.30L158.26 6.85L157.58 6.86L156.58 6.86L156.58 7.13C156.58 7.28 156.67 7.36 156.86 7.38L156.93 7.38C156.95 7.38 157.00 7.39 157.04 7.39L157.25 7.39C157.35 7.39 157.46 7.41 157.58 7.41L157.58 11.30C157.58 11.70 157.64 12.07 157.74 12.39C157.84 12.71 157.98 12.99 158.17 13.22C158.37 13.44 158.59 13.62 158.89 13.75C159.18 13.87 159.52 13.93 159.91 13.93C160.43 13.93 160.90 13.80 161.32 13.57C161.74 13.33 162.12 13.01 162.44 12.60L162.50 13.64C162.50 13.76 162.58 13.82 162.71 13.82L163.07 13.82L164.08 13.82L164.08 13.54C164.08 13.38 163.98 13.30 163.80 13.29ZM176.89 6.80C176.71 6.76 176.53 6.73 176.32 6.73C175.77 6.73 175.31 6.89 174.93 7.21C174.55 7.53 174.26 7.98 174.03 8.54L173.98 7.07C173.98 6.99 173.95 6.93 173.92 6.90C173.89 6.87 173.84 6.86 173.75 6.86L173.40 6.86L173.40 6.86L172.40 6.86L172.40 7.13C172.40 7.31 172.49 7.36 172.66 7.38C172.75 7.38 172.83 7.38 173.40 7.41L173.40 13.26C172.83 13.29 172.75 13.29 172.66 13.29C172.49 13.30 172.40 13.36 172.40 13.54L172.40 13.82L173.40 13.82L174.06 13.82L174.06 13.82L175.07 13.82L175.07 13.54C175.07 13.36 174.97 13.30 174.80 13.29C174.72 13.29 174.64 13.29 174.06 13.26L174.06 9.30C174.27 8.68 174.55 8.20 174.89 7.88C175.22 7.56 175.66 7.39 176.19 7.39C176.33 7.39 176.46 7.41 176.57 7.42C176.68 7.43 176.79 7.45 176.86 7.48C176.95 7.50 176.99 7.53 177.04 7.55C177.10 7.56 177.14 7.57 177.17 7.57C177.25 7.57 177.30 7.53 177.31 7.46L177.39 7.00C177.24 6.92 177.07 6.85 176.89 6.80ZM196.76 4.89C196.81 4.94 196.88 4.98 196.95 5.01C197.02 5.04 197.11 5.07 197.19 5.07C197.27 5.07 197.36 5.04 197.43 5.01C197.50 4.98 197.57 4.94 197.62 4.89C197.68 4.83 197.74 4.76 197.76 4.69C197.79 4.62 197.82 4.54 197.82 4.45C197.82 4.37 197.79 4.30 197.76 4.21C197.74 4.14 197.68 4.07 197.62 4.02C197.57 3.96 197.50 3.91 197.43 3.88C197.36 3.85 197.27 3.84 197.19 3.84C197.11 3.84 197.02 3.85 196.95 3.88C196.88 3.91 196.81 3.96 196.76 4.02C196.70 4.07 196.66 4.14 196.63 4.21C196.60 4.28 196.57 4.37 196.57 4.45C196.57 4.54 196.60 4.62 196.63 4.69C196.66 4.76 196.70 4.83 196.76 4.89ZM198.25 13.29L198.18 13.29L198.07 13.29C198.03 13.29 197.96 13.27 197.86 13.27C197.76 13.27 197.65 13.26 197.53 13.26L197.53 6.85L196.85 6.85L195.85 6.85L195.85 7.13C195.85 7.28 195.94 7.36 196.13 7.38L196.20 7.38C196.22 7.38 196.27 7.39 196.31 7.39L196.52 7.39C196.62 7.39 196.73 7.41 196.85 7.41L196.85 13.26C196.70 13.26 196.56 13.29 196.45 13.29L196.21 13.29L196.13 13.29C195.94 13.30 195.85 13.38 195.85 13.54L195.85 13.82L196.85 13.82L197.53 13.82L198.53 13.82L198.53 13.54C198.53 13.38 198.44 13.30 198.25 13.29ZM213.39 13.54C213.39 13.38 213.30 13.30 213.12 13.29L213.05 13.29L212.95 13.29C212.91 13.29 212.84 13.27 212.76 13.27L212.45 13.27L212.45 3.63L211.79 3.63L210.78 3.63L210.78 3.91C210.78 4.06 210.88 4.14 211.06 4.16L211.13 4.16C211.16 4.16 211.19 4.17 211.23 4.17L211.46 4.17C211.55 4.17 211.67 4.19 211.79 4.19L211.79 7.76C211.54 7.42 211.25 7.17 210.90 7.00C210.55 6.82 210.14 6.73 209.66 6.73C209.17 6.73 208.74 6.83 208.36 7.01C207.98 7.20 207.68 7.46 207.41 7.78C207.14 8.11 206.96 8.50 206.82 8.93C206.68 9.37 206.63 9.84 206.63 10.35C206.63 11.54 206.86 12.43 207.34 13.02C207.82 13.61 208.49 13.90 209.34 13.90C209.86 13.90 210.32 13.79 210.74 13.54C211.16 13.29 211.51 12.95 211.82 12.53L211.89 13.64C211.90 13.76 211.97 13.82 212.09 13.82L212.45 13.82L213.39 13.82L213.39 13.61ZM211.79 12.01C211.50 12.43 211.16 12.77 210.78 13.01C210.41 13.24 210.00 13.37 209.54 13.37C208.82 13.37 208.26 13.13 207.89 12.64C207.51 12.15 207.31 11.38 207.31 10.35C207.31 9.88 207.35 9.48 207.47 9.10C207.58 8.72 207.73 8.39 207.94 8.12C208.15 7.85 208.40 7.63 208.71 7.48C209.02 7.32 209.38 7.25 209.79 7.25C210.20 7.25 210.57 7.34 210.90 7.50C211.22 7.67 211.53 7.95 211.79 8.34ZM224.62 6.73C224.13 6.73 223.68 6.83 223.29 7.00C222.89 7.17 222.57 7.41 222.31 7.71C222.04 8.02 221.83 8.39 221.69 8.81C221.55 9.23 221.47 9.69 221.47 10.19C221.47 10.78 221.55 11.31 221.70 11.77C221.86 12.24 222.07 12.61 222.35 12.94C222.63 13.26 222.96 13.50 223.36 13.66C223.75 13.83 224.18 13.90 224.66 13.90C224.92 13.90 225.19 13.89 225.44 13.83C225.69 13.78 225.95 13.71 226.17 13.62C226.39 13.54 226.60 13.44 226.79 13.31C226.97 13.19 227.12 13.06 227.23 12.92L227.05 12.70C227.02 12.66 226.97 12.63 226.91 12.63C226.87 12.63 226.79 12.66 226.69 12.74C226.59 12.82 226.45 12.91 226.27 13.01C226.10 13.10 225.88 13.17 225.62 13.26C225.37 13.34 225.06 13.38 224.71 13.38C224.32 13.38 223.97 13.31 223.65 13.17C223.33 13.03 223.06 12.84 222.84 12.57C222.61 12.31 222.45 11.97 222.32 11.58C222.19 11.19 222.14 10.71 222.14 10.19L222.14 10.07L227.16 10.07C227.23 10.07 227.28 10.05 227.30 10.01C227.33 9.97 227.36 9.90 227.36 9.80C227.36 9.31 227.29 8.88 227.15 8.50C227.01 8.12 226.83 7.78 226.58 7.53C226.34 7.28 226.04 7.08 225.71 6.94C225.37 6.80 225.01 6.73 224.62 6.73ZM224.63 7.24C224.95 7.24 225.23 7.29 225.50 7.41C225.76 7.52 225.99 7.67 226.17 7.88C226.35 8.09 226.51 8.33 226.60 8.62C226.70 8.92 226.76 9.25 226.76 9.63L222.17 9.63C222.21 9.27 222.29 8.93 222.42 8.64C222.54 8.34 222.71 8.09 222.92 7.88C223.13 7.67 223.38 7.52 223.66 7.41C223.94 7.29 224.27 7.24 224.63 7.24ZM241.19 13.29L241.09 13.29L240.87 13.29C240.77 13.29 240.66 13.27 240.55 13.27L240.55 9.28C240.55 8.89 240.51 8.55 240.41 8.23C240.31 7.91 240.17 7.64 239.99 7.42C239.81 7.20 239.57 7.03 239.29 6.92C239.01 6.79 238.69 6.73 238.31 6.73C237.80 6.73 237.36 6.83 236.95 7.01C236.54 7.20 236.17 7.48 235.80 7.84L235.91 8.05C235.96 8.13 236.03 8.18 236.12 8.18C236.19 8.18 236.29 8.12 236.39 8.02C236.49 7.92 236.63 7.84 236.80 7.73C236.96 7.62 237.15 7.52 237.38 7.42C237.62 7.32 237.90 7.28 238.24 7.28C238.78 7.28 239.20 7.45 239.48 7.80C239.76 8.15 239.89 8.64 239.89 9.28L239.89 10.01C239.11 10.02 238.43 10.09 237.87 10.21C237.31 10.32 236.85 10.47 236.49 10.65C236.12 10.84 235.87 11.06 235.70 11.31C235.54 11.56 235.45 11.83 235.45 12.12C235.45 12.45 235.51 12.73 235.61 12.95C235.72 13.17 235.86 13.36 236.03 13.50C236.19 13.64 236.40 13.75 236.63 13.82C236.85 13.89 237.08 13.93 237.31 13.93C237.59 13.93 237.86 13.90 238.10 13.85C238.34 13.79 238.55 13.71 238.76 13.61C238.97 13.51 239.16 13.38 239.36 13.23C239.54 13.08 239.72 12.91 239.92 12.73L240.02 13.62C240.04 13.75 240.14 13.82 240.28 13.82L240.30 13.82L240.55 13.82L241.47 13.82L241.47 13.54C241.47 13.38 241.37 13.30 241.19 13.29ZM239.89 12.26C239.72 12.43 239.57 12.60 239.40 12.74C239.23 12.88 239.05 13.01 238.85 13.12C238.66 13.23 238.45 13.30 238.22 13.36C238.00 13.41 237.75 13.44 237.48 13.44C237.30 13.44 237.12 13.43 236.95 13.37C236.78 13.31 236.64 13.24 236.52 13.13C236.39 13.02 236.28 12.88 236.21 12.71C236.12 12.54 236.10 12.35 236.10 12.11C236.10 11.86 236.17 11.63 236.32 11.44C236.47 11.24 236.70 11.09 237.01 10.95C237.31 10.81 237.71 10.70 238.18 10.61C238.66 10.53 239.23 10.47 239.89 10.46ZM252.17 13.29L252.10 13.29L251.99 13.29C251.94 13.29 251.87 13.27 251.78 13.27C251.68 13.27 251.57 13.26 251.44 13.26L251.44 3.63L250.77 3.63L249.76 3.63L249.76 3.91C249.76 4.06 249.86 4.14 250.04 4.16L250.11 4.16C250.14 4.16 250.18 4.17 250.22 4.17L250.43 4.17C250.53 4.17 250.64 4.19 250.77 4.19L250.77 13.26C250.61 13.26 250.47 13.29 250.36 13.29L250.12 13.29L250.04 13.29C249.86 13.30 249.76 13.38 249.76 13.54L249.76 13.82L250.77 13.82L251.44 13.82L252.45 13.82L252.45 13.54C252.45 13.38 252.35 13.30 252.17 13.29ZM275.60 11.06C275.49 10.86 275.35 10.71 275.17 10.57C274.99 10.43 274.78 10.32 274.55 10.23C274.33 10.15 274.08 10.05 273.84 9.98C273.60 9.91 273.36 9.83 273.13 9.76C272.90 9.69 272.69 9.59 272.51 9.49C272.33 9.39 272.19 9.27 272.08 9.13C271.96 8.99 271.91 8.81 271.91 8.58C271.91 8.40 271.94 8.23 272.02 8.08C272.10 7.92 272.22 7.77 272.37 7.64C272.51 7.52 272.69 7.43 272.90 7.36C273.11 7.29 273.34 7.25 273.59 7.25C273.95 7.25 274.32 7.31 274.69 7.43C274.71 7.60 274.72 7.77 274.74 7.92C274.75 8.08 274.75 8.19 274.76 8.27C274.78 8.36 274.78 8.43 274.78 8.44C274.79 8.67 274.89 8.78 275.09 8.78L275.42 8.78L275.42 7.11C274.69 6.86 274.08 6.75 273.57 6.75C273.22 6.75 272.90 6.80 272.62 6.90C272.34 7.00 272.09 7.14 271.89 7.31C271.70 7.48 271.54 7.69 271.43 7.91C271.32 8.13 271.28 8.37 271.28 8.62C271.28 8.92 271.33 9.16 271.45 9.35C271.56 9.55 271.70 9.70 271.88 9.84C272.06 9.98 272.26 10.09 272.50 10.18C272.72 10.26 272.96 10.35 273.21 10.42C273.45 10.49 273.69 10.57 273.92 10.64C274.15 10.71 274.36 10.81 274.54 10.92C274.72 11.03 274.88 11.16 274.99 11.31C275.10 11.47 275.16 11.65 275.16 11.89C275.16 12.10 275.11 12.29 275.04 12.49C274.96 12.68 274.85 12.84 274.69 12.98C274.54 13.12 274.36 13.23 274.13 13.31C273.91 13.40 273.66 13.44 273.36 13.44C272.83 13.44 272.38 13.37 272.01 13.22C271.99 13.03 271.98 12.87 271.96 12.71C271.95 12.56 271.95 12.43 271.94 12.35C271.92 12.26 271.92 12.19 271.92 12.18C271.91 11.96 271.81 11.84 271.61 11.84L271.28 11.84L271.28 13.54C271.95 13.79 272.64 13.93 273.34 13.93C273.73 13.93 274.06 13.87 274.37 13.76C274.68 13.65 274.93 13.50 275.14 13.30C275.35 13.10 275.51 12.89 275.62 12.63C275.73 12.36 275.79 12.08 275.79 11.77C275.79 11.49 275.72 11.26 275.60 11.06ZM286.24 13.93C286.54 13.93 286.82 13.86 287.10 13.75C287.36 13.64 287.59 13.48 287.77 13.29L287.59 12.98C287.55 12.94 287.52 12.92 287.48 12.92C287.45 12.92 287.39 12.94 287.34 12.99C287.28 13.05 287.21 13.09 287.13 13.15C287.04 13.20 286.93 13.26 286.80 13.31C286.68 13.37 286.55 13.38 286.38 13.38C286.24 13.38 286.10 13.36 285.99 13.31C285.88 13.27 285.78 13.20 285.70 13.12C285.61 13.03 285.54 12.92 285.49 12.78C285.43 12.64 285.42 12.49 285.42 12.29L285.42 7.57L287.62 7.57L287.62 7.07L285.42 7.07L285.42 4.41L285.10 4.41C285.04 4.41 285.01 4.44 284.98 4.47C284.96 4.49 284.93 4.54 284.93 4.58L284.76 7.07L283.57 7.15L283.57 7.41C283.57 7.46 283.58 7.49 283.61 7.52C283.64 7.55 283.70 7.57 283.75 7.57L284.75 7.57L284.75 12.33C284.75 12.88 284.87 13.27 285.14 13.54C285.40 13.80 285.77 13.93 286.24 13.93ZM300.52 6.80C300.34 6.76 300.16 6.73 299.95 6.73C299.40 6.73 298.94 6.89 298.56 7.21C298.19 7.53 297.89 7.98 297.67 8.54L297.61 7.07C297.61 6.99 297.58 6.93 297.56 6.90C297.53 6.87 297.47 6.86 297.39 6.86L297.04 6.86L297.04 6.86L296.03 6.86L296.03 7.13C296.03 7.31 296.13 7.36 296.30 7.38C296.38 7.38 296.46 7.38 297.04 7.41L297.04 13.26C296.46 13.29 296.38 13.29 296.30 13.29C296.13 13.30 296.03 13.36 296.03 13.54L296.03 13.82L297.04 13.82L297.70 13.82L297.70 13.82L298.70 13.82L298.70 13.54C298.70 13.36 298.61 13.30 298.44 13.29C298.35 13.29 298.27 13.29 297.70 13.26L297.70 9.30C297.91 8.68 298.19 8.20 298.52 7.88C298.86 7.56 299.29 7.39 299.82 7.39C299.96 7.39 300.09 7.41 300.20 7.42C300.31 7.43 300.43 7.45 300.50 7.48C300.58 7.50 300.62 7.53 300.68 7.55C300.73 7.56 300.78 7.57 300.80 7.57C300.89 7.57 300.93 7.53 300.94 7.46L301.03 7.00C300.87 6.92 300.71 6.85 300.52 6.80ZM314.50 13.29L314.40 13.29L314.17 13.29C314.08 13.29 313.96 13.27 313.85 13.27L313.85 9.28C313.85 8.89 313.81 8.55 313.71 8.23C313.61 7.91 313.47 7.64 313.29 7.42C313.11 7.20 312.87 7.03 312.59 6.92C312.31 6.79 311.99 6.73 311.61 6.73C311.11 6.73 310.66 6.83 310.25 7.01C309.85 7.20 309.47 7.48 309.11 7.84L309.22 8.05C309.26 8.13 309.33 8.18 309.43 8.18C309.50 8.18 309.60 8.12 309.69 8.02C309.79 7.92 309.93 7.84 310.10 7.73C310.27 7.62 310.45 7.52 310.69 7.42C310.93 7.32 311.21 7.28 311.54 7.28C312.09 7.28 312.51 7.45 312.79 7.80C313.07 8.15 313.19 8.64 313.19 9.28L313.19 10.01C312.41 10.02 311.74 10.09 311.18 10.21C310.62 10.32 310.16 10.47 309.79 10.65C309.43 10.84 309.18 11.06 309.01 11.31C308.84 11.56 308.76 11.83 308.76 12.12C308.76 12.45 308.81 12.73 308.91 12.95C309.02 13.17 309.16 13.36 309.33 13.50C309.50 13.64 309.71 13.75 309.93 13.82C310.16 13.89 310.38 13.93 310.62 13.93C310.90 13.93 311.16 13.90 311.40 13.85C311.64 13.79 311.85 13.71 312.06 13.61C312.27 13.51 312.47 13.38 312.66 13.23C312.84 13.08 313.03 12.91 313.22 12.73L313.32 13.62C313.35 13.75 313.45 13.82 313.59 13.82L313.60 13.82L313.85 13.82L314.78 13.82L314.78 13.54C314.78 13.38 314.68 13.30 314.50 13.29ZM313.19 12.26C313.03 12.43 312.87 12.60 312.70 12.74C312.54 12.88 312.35 13.01 312.16 13.12C311.96 13.23 311.75 13.30 311.53 13.36C311.30 13.41 311.05 13.44 310.79 13.44C310.60 13.44 310.42 13.43 310.25 13.37C310.09 13.31 309.95 13.24 309.82 13.13C309.69 13.02 309.58 12.88 309.51 12.71C309.43 12.54 309.40 12.35 309.40 12.11C309.40 11.86 309.47 11.63 309.62 11.44C309.78 11.24 310.00 11.09 310.31 10.95C310.62 10.81 311.01 10.70 311.49 10.61C311.96 10.53 312.54 10.47 313.19 10.46ZM323.99 4.89C324.04 4.94 324.11 4.98 324.18 5.01C324.25 5.04 324.34 5.07 324.42 5.07C324.51 5.07 324.59 5.04 324.66 5.01C324.73 4.98 324.80 4.94 324.86 4.89C324.91 4.83 324.97 4.76 325.00 4.69C325.02 4.62 325.05 4.54 325.05 4.45C325.05 4.37 325.02 4.30 325.00 4.21C324.97 4.14 324.91 4.07 324.86 4.02C324.80 3.96 324.73 3.91 324.66 3.88C324.59 3.85 324.51 3.84 324.42 3.84C324.34 3.84 324.25 3.85 324.18 3.88C324.11 3.91 324.04 3.96 323.99 4.02C323.93 4.07 323.89 4.14 323.86 4.21C323.83 4.28 323.81 4.37 323.81 4.45C323.81 4.54 323.83 4.62 323.86 4.69C323.89 4.76 323.93 4.83 323.99 4.89ZM325.49 13.29L325.42 13.29L325.30 13.29C325.26 13.29 325.19 13.27 325.09 13.27C325.00 13.27 324.88 13.26 324.76 13.26L324.76 6.85L324.09 6.85L323.08 6.85L323.08 7.13C323.08 7.28 323.18 7.36 323.36 7.38L323.43 7.38C323.46 7.38 323.50 7.39 323.54 7.39L323.75 7.39C323.85 7.39 323.96 7.41 324.09 7.41L324.09 13.26C323.93 13.26 323.79 13.29 323.68 13.29L323.44 13.29L323.36 13.29C323.18 13.30 323.08 13.38 323.08 13.54L323.08 13.82L324.09 13.82L324.76 13.82L325.77 13.82L325.77 13.54C325.77 13.38 325.67 13.30 325.49 13.29ZM341.26 13.29L341.19 13.29L341.08 13.29C341.04 13.29 340.97 13.27 340.87 13.27C340.77 13.27 340.66 13.26 340.54 13.26L340.54 9.37C340.54 8.96 340.48 8.60 340.38 8.27C340.28 7.95 340.14 7.67 339.95 7.45C339.75 7.22 339.51 7.06 339.22 6.93C338.93 6.80 338.59 6.75 338.21 6.75C337.69 6.75 337.22 6.87 336.80 7.11C336.38 7.36 336.01 7.67 335.69 8.08L335.64 7.03C335.62 6.92 335.55 6.86 335.43 6.86L335.06 6.86L334.05 6.86L334.05 7.13C334.05 7.28 334.14 7.36 334.32 7.38L334.40 7.38C334.43 7.38 334.46 7.39 334.50 7.39L334.71 7.39C334.81 7.39 334.94 7.41 335.06 7.41L335.06 13.26C334.89 13.26 334.75 13.29 334.64 13.29L334.42 13.29L334.32 13.29C334.14 13.30 334.05 13.38 334.05 13.54L334.05 13.82L335.06 13.82L335.72 13.82L336.73 13.82L336.73 13.54C336.73 13.38 336.64 13.30 336.46 13.29L336.38 13.29L336.28 13.29C336.24 13.29 336.17 13.27 336.07 13.27C335.97 13.27 335.85 13.26 335.72 13.26L335.72 8.60C336.03 8.19 336.38 7.87 336.77 7.63C337.16 7.39 337.58 7.28 338.04 7.28C338.66 7.28 339.12 7.46 339.42 7.83C339.71 8.20 339.86 8.71 339.86 9.37L339.86 13.82L340.54 13.82L341.54 13.82L341.54 13.54C341.54 13.38 341.45 13.30 341.26 13.29ZM350.14 13.23C350.14 13.41 350.18 13.57 350.29 13.68C350.41 13.79 350.56 13.85 350.73 13.85L350.84 13.85C350.87 13.85 350.90 13.83 350.92 13.82C350.91 13.99 350.87 14.14 350.81 14.29C350.76 14.45 350.69 14.57 350.62 14.70C350.55 14.83 350.48 14.94 350.41 15.02C350.34 15.11 350.27 15.19 350.22 15.23C350.21 15.25 350.20 15.27 350.18 15.30C350.17 15.33 350.15 15.33 350.15 15.36C350.15 15.40 350.17 15.44 350.21 15.48L350.32 15.58C350.48 15.43 350.63 15.29 350.76 15.11C350.88 14.92 350.99 14.74 351.09 14.55C351.19 14.35 351.25 14.15 351.30 13.96C351.36 13.76 351.37 13.58 351.37 13.38C351.37 13.16 351.32 12.98 351.20 12.84C351.09 12.70 350.94 12.63 350.74 12.63C350.56 12.63 350.42 12.70 350.31 12.81C350.20 12.92 350.14 13.06 350.14 13.23ZM372.33 4.21C372.30 4.14 372.25 4.07 372.19 4.02C372.13 3.96 372.06 3.91 371.99 3.88C371.92 3.85 371.84 3.84 371.76 3.84C371.67 3.84 371.59 3.85 371.52 3.88C371.45 3.91 371.39 3.96 371.34 4.02C371.28 4.07 371.22 4.14 371.20 4.21C371.17 4.28 371.15 4.37 371.15 4.45C371.15 4.54 371.17 4.62 371.20 4.69C371.22 4.76 371.28 4.83 371.34 4.89C371.39 4.94 371.45 4.98 371.52 5.01C371.59 5.04 371.67 5.07 371.76 5.07C371.84 5.07 371.92 5.04 371.99 5.01C372.06 4.98 372.13 4.94 372.19 4.89C372.25 4.83 372.30 4.76 372.33 4.69C372.36 4.62 372.39 4.54 372.39 4.45C372.39 4.37 372.37 4.30 372.33 4.21ZM371.42 6.86L370.41 6.86L370.41 7.13C370.41 7.28 370.51 7.36 370.69 7.38L370.78 7.38C370.80 7.38 370.83 7.39 370.87 7.39L371.08 7.39C371.18 7.39 371.29 7.41 371.42 7.41L371.42 14.70C371.42 15.08 371.34 15.37 371.15 15.58C370.97 15.79 370.69 15.89 370.31 15.89C370.20 15.89 370.10 15.88 370.03 15.86C369.96 15.85 369.92 15.83 369.88 15.83C369.82 15.83 369.78 15.86 369.78 15.92L369.75 16.25C369.85 16.31 369.95 16.34 370.06 16.37C370.17 16.39 370.29 16.39 370.43 16.39C370.71 16.39 370.94 16.35 371.15 16.27C371.36 16.18 371.53 16.07 371.67 15.92C371.81 15.76 371.91 15.58 371.98 15.37C372.05 15.16 372.09 14.94 372.09 14.70L372.09 6.86ZM387.73 13.29L387.66 13.29L387.55 13.29C387.51 13.29 387.44 13.27 387.34 13.27C387.24 13.27 387.13 13.26 387.00 13.26L387.00 6.85L386.33 6.86L385.32 6.86L385.32 7.13C385.32 7.28 385.42 7.36 385.60 7.38L385.67 7.38C385.70 7.38 385.74 7.39 385.78 7.39L385.99 7.39C386.09 7.39 386.20 7.41 386.33 7.41L386.33 12.08C386.02 12.49 385.66 12.81 385.27 13.05C384.87 13.27 384.45 13.40 384.01 13.40C383.39 13.40 382.93 13.20 382.63 12.84C382.34 12.46 382.19 11.96 382.19 11.30L382.19 6.85L381.51 6.86L380.51 6.86L380.51 7.13C380.51 7.28 380.60 7.36 380.79 7.38L380.86 7.38C380.88 7.38 380.93 7.39 380.97 7.39L381.18 7.39C381.28 7.39 381.39 7.41 381.51 7.41L381.51 11.30C381.51 11.70 381.57 12.07 381.67 12.39C381.77 12.71 381.91 12.99 382.10 13.22C382.30 13.44 382.52 13.62 382.82 13.75C383.11 13.87 383.45 13.93 383.84 13.93C384.36 13.93 384.83 13.80 385.25 13.57C385.67 13.33 386.05 13.01 386.37 12.60L386.43 13.64C386.43 13.76 386.51 13.82 386.64 13.82L387.00 13.82L388.01 13.82L388.01 13.54C388.01 13.38 387.91 13.30 387.73 13.29ZM400.85 11.06C400.74 10.86 400.60 10.71 400.41 10.57C400.23 10.43 400.02 10.32 399.80 10.23C399.57 10.15 399.32 10.05 399.08 9.98C398.85 9.91 398.61 9.83 398.37 9.76C398.15 9.69 397.94 9.59 397.75 9.49C397.57 9.39 397.43 9.27 397.32 9.13C397.21 8.99 397.15 8.81 397.15 8.58C397.15 8.40 397.18 8.23 397.26 8.08C397.35 7.92 397.46 7.77 397.61 7.64C397.75 7.52 397.94 7.43 398.15 7.36C398.36 7.29 398.58 7.25 398.83 7.25C399.20 7.25 399.56 7.31 399.94 7.43C399.95 7.60 399.97 7.77 399.98 7.92C399.99 8.08 399.99 8.19 400.01 8.27C400.02 8.36 400.02 8.43 400.02 8.44C400.04 8.67 400.13 8.78 400.33 8.78L400.67 8.78L400.67 7.11C399.94 6.86 399.32 6.75 398.82 6.75C398.47 6.75 398.15 6.80 397.87 6.90C397.59 7.00 397.33 7.14 397.14 7.31C396.94 7.48 396.79 7.69 396.68 7.91C396.56 8.13 396.52 8.37 396.52 8.62C396.52 8.92 396.58 9.16 396.69 9.35C396.80 9.55 396.94 9.70 397.12 9.84C397.31 9.98 397.50 10.09 397.74 10.18C397.96 10.26 398.20 10.35 398.45 10.42C398.69 10.49 398.93 10.57 399.17 10.64C399.39 10.71 399.60 10.81 399.78 10.92C399.97 11.03 400.12 11.16 400.23 11.31C400.34 11.47 400.40 11.65 400.40 11.89C400.40 12.10 400.36 12.29 400.29 12.49C400.20 12.68 400.09 12.84 399.94 12.98C399.78 13.12 399.60 13.23 399.38 13.31C399.15 13.40 398.90 13.44 398.61 13.44C398.08 13.44 397.63 13.37 397.25 13.22C397.24 13.03 397.22 12.87 397.21 12.71C397.19 12.56 397.19 12.43 397.18 12.35C397.17 12.26 397.17 12.19 397.17 12.18C397.15 11.96 397.05 11.84 396.86 11.84L396.52 11.84L396.52 13.54C397.19 13.79 397.88 13.93 398.58 13.93C398.97 13.93 399.31 13.87 399.62 13.76C399.92 13.65 400.18 13.50 400.39 13.30C400.60 13.10 400.75 12.89 400.86 12.63C400.97 12.36 401.03 12.08 401.03 11.77C401.03 11.49 400.96 11.26 400.85 11.06ZM411.49 13.93C411.78 13.93 412.06 13.86 412.34 13.75C412.61 13.64 412.83 13.48 413.01 13.29L412.83 12.98C412.79 12.94 412.76 12.92 412.72 12.92C412.69 12.92 412.64 12.94 412.58 12.99C412.52 13.05 412.45 13.09 412.37 13.15C412.29 13.20 412.17 13.26 412.05 13.31C411.92 13.37 411.80 13.38 411.63 13.38C411.49 13.38 411.35 13.36 411.24 13.31C411.12 13.27 411.03 13.20 410.94 13.12C410.86 13.03 410.79 12.92 410.73 12.78C410.68 12.64 410.66 12.49 410.66 12.29L410.66 7.57L412.86 7.57L412.86 7.07L410.66 7.07L410.66 4.41L410.34 4.41C410.28 4.41 410.26 4.44 410.23 4.47C410.20 4.49 410.17 4.54 410.17 4.58L410.00 7.07L408.81 7.15L408.81 7.41C408.81 7.46 408.83 7.49 408.86 7.52C408.88 7.55 408.94 7.57 409.00 7.57L409.99 7.57L409.99 12.33C409.99 12.88 410.12 13.27 410.38 13.54C410.65 13.80 411.01 13.93 411.49 13.93ZM433.50 5.32C433.58 5.08 433.68 4.90 433.82 4.75C433.96 4.59 434.13 4.48 434.32 4.41C434.52 4.34 434.73 4.31 434.95 4.31C435.09 4.31 435.22 4.33 435.32 4.34C435.41 4.35 435.48 4.35 435.54 4.35C435.62 4.35 435.68 4.33 435.68 4.26L435.69 3.93C435.58 3.89 435.44 3.85 435.30 3.82C435.15 3.79 435.01 3.79 434.87 3.79C434.55 3.79 434.27 3.84 434.00 3.93C433.73 4.03 433.51 4.20 433.33 4.40C433.15 4.59 432.99 4.84 432.89 5.14C432.80 5.43 432.74 5.80 432.74 6.19L432.74 7.07L431.55 7.07L431.55 7.35C431.55 7.46 431.61 7.50 431.75 7.52L432.74 7.59L432.74 13.26C432.57 13.26 432.43 13.27 432.29 13.27C432.15 13.27 432.05 13.29 431.98 13.29L431.86 13.29C431.68 13.30 431.58 13.38 431.58 13.54L431.58 13.82L432.75 13.82L433.40 13.82L434.57 13.82L434.57 13.54C434.57 13.38 434.48 13.30 434.29 13.29L434.17 13.29C434.10 13.29 434.00 13.27 433.86 13.27C433.72 13.27 433.57 13.26 433.40 13.26L433.40 7.57L435.64 7.57L435.64 7.07L433.38 7.07L433.38 6.22C433.38 5.87 433.41 5.56 433.50 5.32ZM446.80 6.73C446.29 6.73 445.84 6.83 445.45 7.00C445.06 7.17 444.72 7.41 444.44 7.71C444.16 8.02 443.97 8.40 443.83 8.85C443.69 9.30 443.60 9.79 443.60 10.33C443.60 10.88 443.69 11.37 443.83 11.80C443.97 12.24 444.16 12.63 444.44 12.94C444.72 13.24 445.06 13.48 445.45 13.65C445.84 13.82 446.29 13.90 446.80 13.90C447.30 13.90 447.73 13.82 448.13 13.65C448.52 13.48 448.85 13.24 449.12 12.94C449.39 12.63 449.61 12.24 449.75 11.80C449.89 11.37 449.96 10.88 449.96 10.33C449.96 9.79 449.89 9.30 449.75 8.85C449.61 8.40 449.39 8.02 449.12 7.71C448.85 7.41 448.52 7.17 448.13 7.00C447.73 6.83 447.30 6.73 446.80 6.73ZM446.80 13.38C446.38 13.38 446.01 13.31 445.70 13.17C445.40 13.03 445.13 12.82 444.92 12.56C444.71 12.29 444.57 11.97 444.46 11.59C444.35 11.21 444.30 10.79 444.30 10.33C444.30 9.87 444.35 9.45 444.46 9.07C444.57 8.69 444.71 8.37 444.92 8.11C445.13 7.84 445.40 7.62 445.70 7.48C446.01 7.34 446.38 7.27 446.80 7.27C447.22 7.27 447.57 7.34 447.87 7.48C448.18 7.62 448.45 7.84 448.66 8.11C448.87 8.37 449.02 8.69 449.12 9.07C449.22 9.45 449.27 9.87 449.27 10.33C449.27 10.79 449.22 11.21 449.12 11.59C449.02 11.97 448.87 12.29 448.66 12.56C448.45 12.82 448.18 13.03 447.87 13.17C447.57 13.31 447.22 13.38 446.80 13.38ZM462.71 6.80C462.53 6.76 462.35 6.73 462.14 6.73C461.59 6.73 461.13 6.89 460.75 7.21C460.38 7.53 460.08 7.98 459.86 8.54L459.80 7.07C459.80 6.99 459.77 6.93 459.75 6.90C459.72 6.87 459.66 6.86 459.58 6.86L459.23 6.86L459.23 6.86L458.22 6.86L458.22 7.13C458.22 7.31 458.32 7.36 458.49 7.38C458.57 7.38 458.65 7.38 459.23 7.41L459.23 13.26C458.65 13.29 458.57 13.29 458.49 13.29C458.32 13.30 458.22 13.36 458.22 13.54L458.22 13.82L459.23 13.82L459.89 13.82L459.89 13.82L460.89 13.82L460.89 13.54C460.89 13.36 460.80 13.30 460.63 13.29C460.54 13.29 460.46 13.29 459.89 13.26L459.89 9.30C460.10 8.68 460.38 8.20 460.71 7.88C461.05 7.56 461.48 7.39 462.01 7.39C462.15 7.39 462.28 7.41 462.39 7.42C462.50 7.43 462.62 7.45 462.69 7.48C462.77 7.50 462.81 7.53 462.87 7.55C462.92 7.56 462.97 7.57 462.99 7.57C463.08 7.57 463.12 7.53 463.13 7.46L463.22 7.00C463.06 6.92 462.90 6.85 462.71 6.80ZM488.18 6.86L487.66 6.86L486.26 6.86L486.26 7.13C486.26 7.28 486.36 7.36 486.54 7.38L486.61 7.38C486.64 7.38 486.67 7.39 486.71 7.39L486.92 7.39C487.02 7.39 487.13 7.41 487.26 7.41L485.11 12.45L485.03 12.66C485.00 12.73 484.99 12.80 484.96 12.87C484.95 12.80 484.90 12.73 484.89 12.66C484.86 12.59 484.85 12.52 484.82 12.45L482.65 7.41C482.80 7.41 482.94 7.39 483.06 7.39C483.17 7.39 483.25 7.38 483.28 7.38L483.36 7.38C483.55 7.36 483.64 7.28 483.64 7.13L483.64 6.86L482.23 6.86L482.23 6.86L481.67 6.86L481.21 6.86L481.21 7.13C481.21 7.28 481.31 7.36 481.49 7.38C481.49 7.38 481.63 7.38 481.91 7.39L484.62 13.57L483.39 16.28L483.87 16.28C483.95 16.28 484.02 16.25 484.06 16.21C484.11 16.17 484.15 16.13 484.18 16.06L487.94 7.39L488.19 7.39C488.28 7.39 488.32 7.38 488.35 7.38L488.42 7.38C488.60 7.36 488.70 7.28 488.70 7.13L488.70 6.86ZM499.58 6.73C499.07 6.73 498.62 6.83 498.23 7.00C497.84 7.17 497.50 7.41 497.22 7.71C496.94 8.02 496.75 8.40 496.61 8.85C496.47 9.30 496.38 9.79 496.38 10.33C496.38 10.88 496.47 11.37 496.61 11.80C496.75 12.24 496.94 12.63 497.22 12.94C497.50 13.24 497.84 13.48 498.23 13.65C498.62 13.82 499.07 13.90 499.58 13.90C500.08 13.90 500.51 13.82 500.91 13.65C501.30 13.48 501.63 13.24 501.90 12.94C502.17 12.63 502.39 12.24 502.53 11.80C502.67 11.37 502.74 10.88 502.74 10.33C502.74 9.79 502.67 9.30 502.53 8.85C502.39 8.40 502.17 8.02 501.90 7.71C501.63 7.41 501.30 7.17 500.91 7.00C500.51 6.83 500.08 6.73 499.58 6.73ZM499.58 13.38C499.16 13.38 498.79 13.31 498.48 13.17C498.18 13.03 497.91 12.82 497.70 12.56C497.49 12.29 497.35 11.97 497.24 11.59C497.13 11.21 497.08 10.79 497.08 10.33C497.08 9.87 497.13 9.45 497.24 9.07C497.35 8.69 497.49 8.37 497.70 8.11C497.91 7.84 498.18 7.62 498.48 7.48C498.79 7.34 499.16 7.27 499.58 7.27C500.00 7.27 500.35 7.34 500.65 7.48C500.96 7.62 501.23 7.84 501.44 8.11C501.65 8.37 501.80 8.69 501.90 9.07C502.00 9.45 502.05 9.87 502.05 10.33C502.05 10.79 502.00 11.21 501.90 11.59C501.80 11.97 501.65 12.29 501.44 12.56C501.23 12.82 500.96 13.03 500.65 13.17C500.35 13.31 500.00 13.38 499.58 13.38ZM517.78 13.29L517.71 13.29L517.59 13.29C517.55 13.29 517.48 13.27 517.38 13.27C517.29 13.27 517.17 13.26 517.05 13.26L517.05 6.85L516.38 6.86L515.37 6.86L515.37 7.13C515.37 7.28 515.47 7.36 515.65 7.38L515.72 7.38C515.75 7.38 515.79 7.39 515.83 7.39L516.04 7.39C516.14 7.39 516.25 7.41 516.38 7.41L516.38 12.08C516.07 12.49 515.70 12.81 515.31 13.05C514.92 13.27 514.50 13.40 514.05 13.40C513.44 13.40 512.97 13.20 512.68 12.84C512.39 12.46 512.23 11.96 512.23 11.30L512.23 6.85L511.56 6.86L510.55 6.86L510.55 7.13C510.55 7.28 510.65 7.36 510.83 7.38L510.90 7.38C510.93 7.38 510.97 7.39 511.01 7.39L511.22 7.39C511.32 7.39 511.43 7.41 511.56 7.41L511.56 11.30C511.56 11.70 511.62 12.07 511.71 12.39C511.81 12.71 511.95 12.99 512.15 13.22C512.34 13.44 512.57 13.62 512.86 13.75C513.16 13.87 513.49 13.93 513.88 13.93C514.40 13.93 514.88 13.80 515.30 13.57C515.72 13.33 516.10 13.01 516.42 12.60L516.47 13.64C516.47 13.76 516.56 13.82 516.68 13.82L517.05 13.82L518.06 13.82L518.06 13.54C518.06 13.38 517.96 13.30 517.78 13.29ZM526.62 13.29C526.62 13.47 526.68 13.61 526.81 13.73C526.93 13.86 527.09 13.93 527.27 13.93C527.35 13.93 527.44 13.90 527.52 13.87C527.60 13.85 527.66 13.79 527.72 13.73C527.77 13.68 527.83 13.62 527.86 13.54C527.88 13.45 527.91 13.38 527.91 13.29C527.91 13.20 527.88 13.12 527.86 13.03C527.83 12.95 527.77 12.88 527.72 12.82C527.66 12.77 527.60 12.71 527.52 12.68C527.44 12.66 527.35 12.63 527.27 12.63C527.17 12.63 527.09 12.66 527.00 12.68C526.92 12.71 526.86 12.77 526.81 12.82C526.75 12.88 526.69 12.95 526.67 13.03C526.64 13.12 526.62 13.20 526.62 13.29Z"></path></g></svg>