<?xml version="1.0" encoding="utf-8"?>
<!-- Generator: Adobe Illustrator 24.1.0, SVG Export Plug-In . SVG Version: 6.00 Build 0)  -->
<svg version="1.1" id="Layer_1" xmlns="http://www.w3.org/2000/svg" xmlns:xlink="http://www.w3.org/1999/xlink" x="0px" y="0px"
	 viewBox="0 0 60 60" style="enable-background:new 0 0 60 60;" xml:space="preserve">
<style type="text/css">
	.st0{fill:#C3D4AD;}
	.st1{fill:#7C6A53;}
</style>
<g>
	<g id="XMLID_1_">
		<g>
			<path class="st0" d="M50.4,36.8c0.3,0.1,0.6,0.2,0.7,0.2c0.2,0.1,0.3,0.1,0.3,0.1s-0.1,0.1-0.2,0.2c-0.2,0.1-0.3,0.3-0.6,0.5
				c-0.7,0.6-1.5,1.2-2.2,1.6c-1,0.7-2.1,1.2-3.2,1.7c-1.2,0.6-2.6,1-3.9,1.3c-1.3,0.4-2.7,0.6-4,0.7c-0.9,0.1-1.7,0.1-2.5,0.1
				c1,0.4,1.8,0.8,2.7,1.3c0.8,0.4,1.6,1,2.3,1.6c0.7,0.6,1.2,1.1,1.8,1.8c0.4,0.4,0.8,1,1.2,1.5c0.2,0.4,0.4,0.7,0.4,0.7
				s-0.2,0-0.7,0c-0.6-0.1-1.2-0.1-1.8-0.3c-0.8-0.2-1.6-0.4-2.4-0.7c-0.9-0.4-1.8-0.7-2.6-1.2c-1.7-1-3.2-2.2-4.2-3.4
				c-0.4-0.4-0.8-1-1.2-1.5c-0.1-0.1-0.1-0.2-0.1-0.3c-0.1,0-0.1,0-0.1,0c-0.1,0-0.1,0-0.1,0c-0.1,0.1-0.1,0.1-0.2,0.3
				c-0.4,0.5-0.7,1-1.2,1.5c-1,1.2-2.5,2.4-4.2,3.4c-0.8,0.5-1.7,0.9-2.6,1.2c-0.8,0.3-1.6,0.6-2.4,0.7C18.6,49.9,18,50,17.4,50
				c-0.4,0-0.7,0-0.7,0s0.1-0.3,0.4-0.7c0.3-0.4,0.7-0.9,1.2-1.5c0.6-0.7,1.2-1.2,1.8-1.8c0.7-0.6,1.5-1.1,2.4-1.6
				c0.9-0.5,1.8-1,2.7-1.3c-0.9,0.1-1.7,0-2.5-0.1c-1.3-0.1-2.7-0.4-4-0.7c-1.3-0.4-2.6-0.8-3.9-1.3c-1.2-0.5-2.3-1.1-3.2-1.7
				c-0.8-0.5-1.6-1-2.2-1.6c-0.3-0.2-0.4-0.4-0.6-0.5c-0.1-0.1-0.2-0.2-0.2-0.2c0,0,0.1,0,0.3-0.1c0.2-0.1,0.5-0.1,0.8-0.2
				c0.9-0.2,1.8-0.3,2.7-0.4c1.2-0.1,2.5-0.1,3.7,0.1c1.3,0.2,2.7,0.4,4,0.7c1.3,0.4,2.6,0.8,3.9,1.3c0.4,0.1,0.7,0.4,1.1,0.5
				c-0.2-0.2-0.4-0.4-0.7-0.6c-0.7-0.6-1.2-1.2-1.8-1.8c-1.2-1.3-2.4-2.7-3.5-4.1c-1.1-1.5-2.1-3-3-4.5c-0.9-1.5-1.6-3-2.1-4.3
				c-0.4-1-0.8-2.1-1.1-3.3c-0.1-0.4-0.1-0.8-0.2-1c-0.1-0.2-0.1-0.4-0.1-0.4s0.1,0.1,0.1,0.1c0.2,0.2,0.5,0.3,0.9,0.5
				c0.9,0.6,1.9,1.2,2.9,2c1.2,0.9,2.3,2,3.6,3.2c1.2,1.2,2.4,2.6,3.5,4.1c1.1,1.5,2.1,3,3,4.6c0.4,0.6,0.7,1.2,1,1.8
				c-0.3-1.4-0.6-2.7-0.7-4.1c-0.2-2.1-0.4-4.3-0.4-6.5c0-2.2,0.1-4.5,0.4-6.5c0.3-2.1,0.7-4,1.1-5.7c0.4-1.4,0.8-2.7,1.3-4
				c0.4-1,0.7-1.6,0.7-1.6s0.4,0.6,0.7,1.6c0.4,0.9,0.9,2.4,1.3,4c0.5,1.9,0.9,3.8,1.1,5.7c0.2,2.1,0.4,4.3,0.4,6.5
				c0,2.2-0.1,4.5-0.4,6.5c-0.1,1.4-0.4,2.8-0.7,4.1c0.4-0.6,0.7-1.2,1-1.8c0.9-1.6,1.9-3.1,3-4.6c1.1-1.5,2.3-2.9,3.5-4.1
				c1.2-1.2,2.5-2.4,3.6-3.2c1-0.7,1.9-1.4,2.9-2c0.4-0.2,0.7-0.4,0.9-0.5c0.2-0.1,0.4-0.1,0.4-0.1s0,0.1-0.1,0.4
				c-0.1,0.3-0.1,0.6-0.2,1c-0.2,0.8-0.6,2-1.1,3.3C45.6,25,44.9,26.5,44,28c-0.9,1.5-1.9,3.1-3,4.5c-1.1,1.5-2.3,2.9-3.5,4.1
				c-0.6,0.6-1.2,1.2-1.8,1.8c-0.2,0.2-0.4,0.4-0.7,0.6c0.4-0.2,0.7-0.4,1.1-0.5c1.2-0.6,2.6-1,3.9-1.3c1.3-0.4,2.7-0.6,4-0.7
				c1.2-0.1,2.4-0.1,3.7-0.1C48.7,36.5,49.5,36.5,50.4,36.8z"/>
			<path class="st1" d="M44,36.5c-1.3,0.2-2.7,0.4-4,0.7c-1.3,0.3-2.6,0.7-3.9,1.3c-0.4,0.1-0.7,0.3-1.1,0.5
				c0.2-0.2,0.4-0.4,0.7-0.6c0.7-0.6,1.2-1.2,1.8-1.8c1.2-1.2,2.4-2.6,3.5-4.1c1.1-1.5,2.1-3,3-4.5c0.9-1.5,1.6-3,2.1-4.3
				c0.5-1.3,0.9-2.5,1.1-3.3c0.1-0.4,0.2-0.7,0.2-1c0.1-0.2,0.1-0.4,0.1-0.4s-0.1,0.1-0.4,0.1c-0.2,0.1-0.5,0.3-0.9,0.5
				c-1,0.6-2,1.2-2.9,2c-1.1,0.9-2.4,2-3.6,3.2c-1.2,1.2-2.4,2.6-3.5,4.1c-1.1,1.5-2.1,2.9-3,4.6c-0.4,0.6-0.7,1.2-1,1.8
				c0.3-1.3,0.5-2.7,0.7-4.1c0.3-2.1,0.4-4.3,0.4-6.5c0-2.2-0.1-4.5-0.4-6.5c-0.2-1.9-0.6-3.8-1.1-5.7c-0.4-1.7-1-3.1-1.3-4
				c-0.4-1-0.7-1.6-0.7-1.6S29.4,7.4,29,8.4c-0.5,1.3-1,2.6-1.3,4c-0.4,1.7-0.8,3.6-1.1,5.7c-0.3,2.1-0.4,4.3-0.4,6.5
				c0,2.2,0.1,4.4,0.4,6.5c0.1,1.4,0.4,2.7,0.7,4.1c-0.3-0.6-0.7-1.2-1-1.8c-0.9-1.5-1.9-3.1-3-4.6c-1.1-1.5-2.4-2.9-3.5-4.1
				c-1.2-1.2-2.4-2.4-3.6-3.2c-1-0.7-1.9-1.4-2.9-2c-0.4-0.2-0.7-0.4-0.9-0.5c0-0.1-0.1-0.1-0.1-0.1s0,0.1,0.1,0.4
				c0.1,0.2,0.1,0.6,0.2,1c0.3,1.2,0.7,2.3,1.1,3.3c0.5,1.3,1.2,2.8,2.1,4.3c0.9,1.5,1.9,3.1,3,4.5c1.1,1.4,2.3,2.8,3.5,4.1
				c0.6,0.6,1.2,1.2,1.8,1.8c0.2,0.2,0.4,0.4,0.7,0.6c-0.4-0.1-0.7-0.4-1.1-0.5c-1.2-0.5-2.6-1-3.9-1.3c-1.3-0.3-2.7-0.6-4-0.7
				c-1.2-0.1-2.4-0.1-3.7-0.1c-0.9,0.1-1.8,0.1-2.7,0.4c-0.3,0.1-0.6,0.2-0.8,0.2C8.6,37,8.4,37,8.4,37c0.1,0.1,0.1,0.2,0.2,0.2
				c0.1,0.1,0.3,0.3,0.6,0.5c0.7,0.6,1.4,1.1,2.2,1.6c0.9,0.6,2,1.2,3.2,1.7c1.2,0.5,2.6,1,3.9,1.3c1.3,0.4,2.7,0.6,4,0.7
				c0.8,0.1,1.6,0.2,2.5,0.1c-1,0.4-1.8,0.8-2.7,1.3c-0.8,0.5-1.6,1-2.4,1.6c-0.7,0.5-1.2,1.1-1.8,1.8c-0.5,0.6-0.9,1.1-1.2,1.5
				c-0.3,0.4-0.4,0.7-0.4,0.7s0.3,0,0.7,0c0.7-0.1,1.2-0.1,1.9-0.3c0.8-0.2,1.6-0.4,2.4-0.7c0.9-0.4,1.8-0.7,2.6-1.2
				c1.7-1,3.2-2.2,4.2-3.4c0.4-0.4,0.8-1,1.2-1.5c0.1-0.1,0.2-0.2,0.2-0.3c0.1,0,0.1,0,0.1,0c0,0,0.1,0,0.1,0
				c0.1,0.1,0.1,0.2,0.1,0.3c0.4,0.5,0.7,1,1.2,1.5c1,1.2,2.5,2.4,4.2,3.4c0.8,0.5,1.7,0.9,2.6,1.2c0.8,0.3,1.6,0.6,2.4,0.7
				c0.6,0.2,1.2,0.2,1.8,0.3c0.5,0,0.7,0,0.7,0s-0.2-0.3-0.4-0.7c-0.4-0.5-0.7-1-1.2-1.5c-0.6-0.7-1.2-1.2-1.8-1.8
				c-0.7-0.6-1.5-1.2-2.3-1.6c-0.9-0.5-1.8-1-2.7-1.3c0.8,0,1.6,0,2.5-0.1c1.3-0.1,2.7-0.4,4-0.7c1.3-0.3,2.6-0.7,3.9-1.3
				c1.1-0.5,2.2-1,3.2-1.7c0.7-0.4,1.5-1,2.2-1.6c0.3-0.2,0.4-0.4,0.6-0.5c0.1-0.2,0.2-0.2,0.2-0.2s-0.1,0-0.3-0.1
				c-0.1-0.1-0.4-0.1-0.7-0.2c-0.9-0.2-1.8-0.3-2.7-0.4C46.5,36.3,45.3,36.3,44,36.5z M30,0c16.5,0,30,13.4,30,30S46.5,60,30,60
				S0,46.5,0,30S13.5,0,30,0z"/>
		</g>
		<g>
		</g>
	</g>
</g>
</svg>
