<svg data-v-423bf9ae="" xmlns="http://www.w3.org/2000/svg" viewBox="0 0 60.001467496356 60" class="icon"><!----><!----><!----><!----><g data-v-423bf9ae="" id="b91b1292-812f-41f8-9e99-940dadc29b4d" transform="matrix(0.7341514594400624,0,0,0.7341514594400624,-6.707205516868491,-6.707207498196908)" stroke="none" fill="black"><path d="M50.001 9.136c-22.533 0-40.865 18.331-40.865 40.862 0 22.533 18.332 40.865 40.865 40.865 22.532 0 40.864-18.332 40.864-40.865 0-22.531-18.332-40.862-40.864-40.862zm20.745 55.94a36.98 36.98 0 0 1-5.287 1.775c-1.832.467-3.695.809-5.484.977a34.14 34.14 0 0 1-3.35.156 24.403 24.403 0 0 1 3.688 1.758 25.974 25.974 0 0 1 3.207 2.199 21.969 21.969 0 0 1 2.537 2.377 16.871 16.871 0 0 1 1.586 2.025c.357.545.535.9.535.9s-.396.02-1.043-.016a17.094 17.094 0 0 1-2.553-.367 21.373 21.373 0 0 1-3.322-1.018 25.995 25.995 0 0 1-3.5-1.686c-2.297-1.311-4.357-3.018-5.75-4.566a17.094 17.094 0 0 1-1.584-2.035c-.102-.16-.189-.295-.256-.416-.068-.018-.127-.037-.168-.047-.043.01-.1.029-.166.047-.07.121-.154.256-.256.416a17.348 17.348 0 0 1-1.59 2.035c-1.389 1.549-3.457 3.254-5.748 4.566a25.906 25.906 0 0 1-3.502 1.686 21.126 21.126 0 0 1-3.32 1.018 16.91 16.91 0 0 1-2.553.367c-.646.035-1.039.016-1.039.016s.176-.355.529-.9c.354-.537.891-1.258 1.588-2.025a22.443 22.443 0 0 1 2.535-2.377 26.304 26.304 0 0 1 3.209-2.199 24.177 24.177 0 0 1 3.688-1.758 34.168 34.168 0 0 1-3.35-.156c-1.785-.168-3.652-.51-5.486-.977a37.163 37.163 0 0 1-5.285-1.775c-1.648-.707-3.158-1.49-4.42-2.281a24.638 24.638 0 0 1-2.984-2.178c-.354-.291-.617-.57-.803-.74a4.89 4.89 0 0 1-.279-.285s.135-.047.383-.117c.242-.059.609-.176 1.059-.271a25.584 25.584 0 0 1 3.662-.484 32.936 32.936 0 0 1 4.975.107c1.787.174 3.652.51 5.488.969a36.917 36.917 0 0 1 5.287 1.764c.506.215.992.443 1.467.67a37.365 37.365 0 0 1-.902-.785 54.04 54.04 0 0 1-2.482-2.373 59.198 59.198 0 0 1-4.811-5.611c-1.512-2.008-2.91-4.097-4.092-6.158-1.176-2.062-2.162-4.073-2.898-5.877a37.229 37.229 0 0 1-1.545-4.543c-.156-.569-.236-1.05-.312-1.362-.068-.317-.09-.495-.09-.495s.166.07.455.221c.279.155.719.365 1.227.669a37.314 37.314 0 0 1 3.949 2.718c1.537 1.198 3.207 2.691 4.875 4.383 1.662 1.692 3.295 3.608 4.816 5.607 1.516 1.999 2.92 4.09 4.1 6.151.498.852.945 1.709 1.367 2.543a62.46 62.46 0 0 1-.953-5.584c-.352-2.835-.523-5.863-.523-8.887.006-3.025.182-6.054.539-8.89.35-2.836.875-5.484 1.461-7.755a44.397 44.397 0 0 1 1.787-5.484c.531-1.323.945-2.08.945-2.08s.414.757.944 2.08c.541 1.323 1.201 3.215 1.789 5.484a60.876 60.876 0 0 1 1.459 7.755c.359 2.836.533 5.865.543 8.89 0 3.024-.174 6.052-.527 8.887a61.863 61.863 0 0 1-.949 5.582c.422-.832.869-1.689 1.361-2.541a59.641 59.641 0 0 1 4.1-6.151c1.527-1.999 3.158-3.915 4.82-5.607 1.666-1.692 3.332-3.185 4.869-4.383a36.934 36.934 0 0 1 3.957-2.718c.504-.304.943-.514 1.227-.669.285-.151.451-.221.451-.221s-.023.178-.086.495c-.078.312-.16.793-.32 1.362-.297 1.151-.801 2.739-1.539 4.543-.74 1.804-1.723 3.814-2.902 5.877-1.176 2.061-2.58 4.15-4.088 6.158-1.52 2.002-3.146 3.914-4.814 5.611a52.043 52.043 0 0 1-2.48 2.373c-.303.277-.602.531-.9.785.473-.227.961-.455 1.469-.67a36.616 36.616 0 0 1 5.283-1.764 38.108 38.108 0 0 1 5.486-.969 32.855 32.855 0 0 1 4.979-.107 25.77 25.77 0 0 1 3.662.484c.449.096.812.213 1.057.271.246.07.383.117.383.117s-.094.109-.281.285c-.184.17-.449.449-.801.74a24.672 24.672 0 0 1-2.982 2.178 33.419 33.419 0 0 1-4.428 2.281z"></path></g><!----></svg>