<svg id="Layer_1" data-name="Layer 1" xmlns="http://www.w3.org/2000/svg" viewBox="0 0 870 870.01"><defs><style>.cls-1{fill:#1a1c20;}</style></defs><path class="cls-1" d="M500.15,73.32c-239.86,0-435,194.3-435,435A433.55,433.55,0,0,0,205.89,828.69c166.22,152.74,422,153,588.54,0A433.59,433.59,0,0,0,935.15,508.32C935.15,268,740.39,73.32,500.15,73.32ZM772,804.31v-25.5c0-239.78-543.75-239.78-543.75,0v25.5a400.83,400.83,0,0,1-130-296c0-222,179.93-401.91,401.9-401.91s401.9,180,401.9,401.91A400.81,400.81,0,0,1,772,804.31ZM500.15,220.87A165.49,165.49,0,1,0,665.64,386.36,165.48,165.48,0,0,0,500.15,220.87Z" transform="translate(-65.15 -73.32)"/></svg>